<?xml version="1.0" encoding="utf-8"?>
<!-- Generator: Adobe Illustrator 25.4.1, SVG Export Plug-In . SVG Version: 6.00 Build 0)  -->
<svg version="1.1" id="Layer_1" xmlns="http://www.w3.org/2000/svg" xmlns:xlink="http://www.w3.org/1999/xlink" x="0px" y="0px"
	 viewBox="0 0 801.2 801.2" style="enable-background:new 0 0 801.2 801.2;" xml:space="preserve">
<style type="text/css">
	.st0{fill:#1691B1;}
	.st1{fill:#1D1B4C;}
	.st2{fill:none;}
</style>
<rect x="212.2" y="336.3" transform="matrix(0.7071 -0.7071 0.7071 0.7071 -172.8483 312.8434)" class="st0" width="158" height="57.6"/>
<rect x="429.8" y="406.2" transform="matrix(0.7071 -0.7071 0.7071 0.7071 -158.5227 487.1786)" class="st0" width="158" height="57.6"/>
<polygon class="st1" points="67.2,400.6 326.7,141.1 515.2,329.6 373.1,471.6 474.4,572.9 646.8,400.6 357,110.8 400.6,67.2 
	733.9,400.6 474.4,660 286,471.6 428.1,329.6 326.7,228.2 154.3,400.6 444.1,690.4 400.6,733.9 "/>
<rect x="878.9" y="336.3" transform="matrix(0.7071 -0.7071 0.7071 0.7071 22.412 784.2374)" class="st2" width="158" height="57.6"/>
<rect x="1096.5" y="406.2" transform="matrix(0.7071 -0.7071 0.7071 0.7071 36.7406 958.5856)" class="st2" width="158" height="57.6"/>
<polygon class="st2" points="733.9,400.6 993.4,141.1 1181.8,329.6 1039.8,471.6 1141.1,572.9 1313.5,400.6 1023.7,110.8 
	1067.2,67.2 1400.6,400.6 1141.1,660 952.7,471.6 1094.7,329.6 993.4,228.2 821,400.6 1110.8,690.4 1067.2,733.9 "/>
<rect x="212.2" y="-330.4" transform="matrix(0.7071 -0.7071 0.7071 0.7071 298.5598 117.5772)" class="st2" width="158" height="57.6"/>
<rect x="429.8" y="-260.5" transform="matrix(0.7071 -0.7071 0.7071 0.7071 312.8842 291.9151)" class="st2" width="158" height="57.6"/>
<polygon class="st2" points="67.2,-266.1 326.7,-525.6 515.2,-337.1 373.1,-195.1 474.4,-93.7 646.8,-266.1 357,-555.9 
	400.6,-599.4 733.9,-266.1 474.4,-6.6 286,-195.1 428.1,-337.1 326.7,-438.5 154.3,-266.1 444.1,23.7 400.6,67.2 "/>
<rect x="-454.5" y="336.3" transform="matrix(0.7071 -0.7071 0.7071 0.7071 -368.1117 -158.5636)" class="st2" width="158" height="57.6"/>
<rect x="-236.9" y="406.2" transform="matrix(0.7071 -0.7071 0.7071 0.7071 -353.7861 15.7774)" class="st2" width="158" height="57.6"/>
<polygon class="st2" points="-599.4,400.6 -340,141.1 -151.5,329.6 -293.6,471.6 -192.2,572.9 -19.9,400.6 -309.6,110.8 
	-266.1,67.2 67.2,400.6 -192.2,660 -380.7,471.6 -238.6,329.6 -340,228.2 -512.3,400.6 -222.5,690.4 -266.1,733.9 "/>
<rect x="212.2" y="1002.9" transform="matrix(0.7071 -0.7071 0.7071 0.7071 -644.2524 508.0998)" class="st2" width="158" height="57.6"/>
<rect x="429.8" y="1072.8" transform="matrix(0.7071 -0.7071 0.7071 0.7071 -629.9238 682.4418)" class="st2" width="158" height="57.6"/>
<polygon class="st2" points="67.2,1067.2 326.7,807.8 515.2,996.2 373.1,1138.3 474.4,1239.6 646.8,1067.2 357,777.5 400.6,733.9 
	733.9,1067.2 474.4,1326.7 286,1138.3 428.1,996.2 326.7,894.9 154.3,1067.2 444.1,1357 400.6,1400.6 "/>
<rect x="67.2" y="67.2" class="st2" width="666.7" height="666.7"/>
<rect x="-599.4" y="-599.4" class="st2" width="2000" height="2000"/>
</svg>
