<?xml version="1.0" encoding="utf-8"?>
<!-- Generator: Adobe Illustrator 25.4.1, SVG Export Plug-In . SVG Version: 6.00 Build 0)  -->
<svg version="1.1" id="Layer_1" xmlns="http://www.w3.org/2000/svg" xmlns:xlink="http://www.w3.org/1999/xlink" x="0px" y="0px"
	 viewBox="0 0 1222.6 663" style="enable-background:new 0 0 1222.6 663;" xml:space="preserve">
<style type="text/css">
	.st0{fill:#B71F67;}
	.st1{fill:#1790B0;}
	.st2{fill:#1D1B4C;}
	.st3{fill:none;}
</style>
<path class="st0" d="M58.4,325.9V190.6h55.7c12,0,22.3,1.9,30.8,5.7c8.1,3.4,15,9.2,19.8,16.5c4.7,7.2,7,15.9,7,25.9
	c0,9.9-2.3,18.5-7,25.6c-4.9,7.3-11.7,13.1-19.8,16.6c-8.6,3.9-18.9,5.9-30.8,5.9H72.5l11-11.6V326L58.4,325.9z M83.6,277.9
	l-11-12.4H113c11.1,0,19.4-2.4,25-7.1s8.4-11.3,8.4-19.8c0-8.5-2.8-15.1-8.4-19.8c-5.6-4.7-13.9-7.1-25-7.1H72.5l11-12.4L83.6,277.9
	z"/>
<path class="st0" d="M161.3,325.9l60.9-135.4H247l61.1,135.4h-26.5l-52.3-122h10.1l-52.4,122L161.3,325.9z M189.3,294.6l7-19.7h72.9
	l6.8,19.7L189.3,294.6z"/>
<path class="st0" d="M315.6,325.9V190.6h55.7c12,0,22.3,1.9,30.8,5.7c8.1,3.4,15,9.2,19.8,16.5c4.7,7.2,7,15.9,7,25.9
	c0,9.9-2.3,18.5-7,25.6c-4.9,7.3-11.7,13.1-19.8,16.6c-8.6,3.9-18.8,5.9-30.8,5.9h-41.6l11-11.6V326L315.6,325.9z M340.8,277.9
	l-11-12.4h40.4c11.1,0,19.4-2.4,25-7.1c5.6-4.7,8.4-11.3,8.4-19.8c0-8.5-2.8-15.1-8.4-19.8s-13.9-7.1-25-7.1h-40.4l11-12.4
	L340.8,277.9z"/>
<path class="st0" d="M469.5,304.7h76.4v21.3H444.4V190.6h98.8v21.3h-73.7V304.7z M467.6,246.9h67.3v20.7h-67.3V246.9z"/>
<path class="st0" d="M564.3,325.9V190.6h25.1v114.1h70.8v21.3L564.3,325.9z"/>
<path class="st0" d="M58.4,486.2V350.9h55.7c12,0,22.3,1.9,30.8,5.7c8.1,3.4,15,9.2,19.8,16.5c4.7,7.2,7,15.9,7,25.9
	c0,9.9-2.3,18.5-7,25.6c-4.9,7.3-11.7,13.1-19.8,16.6c-8.6,3.9-18.9,5.9-30.8,5.9H72.5l11-11.6v50.7L58.4,486.2z M83.6,438.2
	l-11-12.4H113c11.1,0,19.4-2.4,25-7.1s8.4-11.3,8.4-19.8c0-8.5-2.8-15.1-8.4-19.8c-5.6-4.7-13.9-7.1-25-7.1H72.5l11-12.4L83.6,438.2
	z"/>
<path class="st0" d="M187.2,486.2V350.9h25.1v135.4L187.2,486.2z"/>
<path class="st0" d="M301.9,488.2c-9.8,0.1-19.6-1.6-28.8-5.1c-17.1-6.6-30.9-19.8-38.1-36.6c-7.2-17.9-7.2-37.8,0-55.7
	c3.6-8.3,8.8-15.8,15.3-22c6.6-6.3,14.4-11.3,23-14.6c19.1-7,40.2-6.8,59.2,0.6c9,3.7,17,9.5,23.2,16.9l-16.2,15.3
	c-4.7-5-10.3-9.1-16.6-11.9c-6.2-2.7-12.8-4-19.5-4c-6.6-0.1-13.2,1.1-19.4,3.5c-5.7,2.2-10.9,5.6-15.3,9.9
	c-4.4,4.3-7.8,9.4-10.2,15.1c-4.9,12.3-4.9,26,0,38.3c2.3,5.7,5.8,10.8,10.2,15.1c4.4,4.3,9.6,7.6,15.3,9.9
	c6.2,2.4,12.8,3.6,19.4,3.5c6.7,0,13.4-1.3,19.5-4c6.3-2.8,12-6.9,16.6-12.1l16.2,15.3c-6.3,7.4-14.2,13.3-23.2,17
	C322.7,486.3,312.4,488.3,301.9,488.2z"/>
<path class="st0" d="M348.1,486.2L409,350.9h24.8l61.1,135.4h-26.5l-52.2-122h10.1l-52.4,122L348.1,486.2z M376.1,454.9l7-19.7H456
	l6.8,19.7H376.1z"/>
<path class="st0" d="M502.4,486.2V350.9h59.4c14.4,0,27.2,2.8,38.4,8.4c10.8,5.2,19.8,13.5,26,23.7c6.2,10.2,9.3,22,9.3,35.6
	c0,13.5-3.1,25.4-9.3,35.6c-6.2,10.2-15.2,18.4-26,23.7c-11.2,5.6-24,8.4-38.4,8.4L502.4,486.2z M527.6,465h32.7
	c10.2,0,19-1.9,26.4-5.8c7.2-3.7,13.2-9.3,17.4-16.2c4.2-7,6.3-15.1,6.3-24.4c0-9.5-2.1-17.7-6.3-24.6c-4.2-6.8-10.2-12.4-17.4-16
	c-7.4-3.9-16.2-5.8-26.4-5.8h-32.7L527.6,465z"/>
<path class="st0" d="M715.9,488.2c-9.9,0.1-19.8-1.7-29.1-5.2c-8.7-3.3-16.6-8.3-23.3-14.7c-6.5-6.3-11.7-13.8-15.3-22.1
	c-7.2-17.7-7.2-37.6,0-55.3c3.5-8.3,8.7-15.8,15.3-22.1c6.7-6.3,14.6-11.3,23.2-14.6c18.8-6.9,39.4-7,58.2-0.1
	c8.6,3.2,16.5,8.2,23.1,14.5c6.5,6.3,11.7,13.8,15.2,22.1c3.7,8.8,5.5,18.3,5.4,27.8c0.1,9.5-1.7,19-5.4,27.8
	c-7.2,17-21,30.3-38.3,36.7C735.6,486.5,725.8,488.3,715.9,488.2z M715.9,466.2c6.5,0.1,12.9-1.1,18.9-3.5c5.6-2.2,10.7-5.6,15-9.9
	c4.3-4.3,7.7-9.4,10-15.1c2.4-6.1,3.6-12.6,3.6-19.1c0.1-6.5-1.1-13-3.5-19.2c-2.2-5.7-5.7-10.8-10-15.1c-4.3-4.3-9.4-7.6-15.1-9.9
	c-6-2.4-12.4-3.6-18.9-3.5c-6.5-0.1-12.9,1.1-19,3.5c-5.7,2.2-10.9,5.6-15.2,10c-18.5,19-18.5,49.3,0,68.3c4.3,4.4,9.5,7.8,15.2,10
	C703,465.1,709.4,466.2,715.9,466.2L715.9,466.2z"/>
<rect x="811.3" y="220.2" transform="matrix(0.7071 -0.7071 0.7071 0.7071 83.8328 681.306)" class="st1" width="106" height="38.6"/>
<rect x="957.3" y="267" transform="matrix(0.7071 -0.7071 0.7071 0.7071 93.4425 798.2261)" class="st1" width="106" height="38.6"/>
<polygon class="st2" points="714.1,263.3 888.1,89.3 1014.5,215.6 919.3,310.9 987.2,378.9 1102.8,263.3 908.5,68.9 937.7,39.7 
	1161.2,263.3 987.2,437.3 860.8,310.9 956.1,215.6 888.1,147.7 772.5,263.3 966.9,457.6 937.7,486.8 "/>
<path class="st2" d="M60.6,579v-48.3h3L86,569.4h-1.6l22.3-38.7h2.9l0.1,48.3h-3.4l-0.1-43h1l-21.2,36.5h-1.8L63.1,536h1v43H60.6z"
	/>
<path class="st2" d="M139,575.8h29.8v3.2h-33.3v-48.3h32.3v3.2H139V575.8z M138.6,552.9h26.1v3.1h-26.1L138.6,552.9z"/>
<path class="st2" d="M190.6,579v-48.3h17.3c3.6-0.1,7.1,0.6,10.4,1.9c2.7,1.1,5.1,3.1,6.7,5.6c1.6,2.6,2.4,5.7,2.3,8.8
	c0.1,3.1-0.7,6.1-2.3,8.7c-1.6,2.5-4,4.4-6.7,5.6c-3.3,1.4-6.8,2.1-10.4,2h-15.4l1.6-1.7V579L190.6,579z M194.1,561.8l-1.6-1.7h15.4
	c5.2,0,9.1-1.1,11.8-3.4s4-5.5,4-9.7c0-4.2-1.3-7.4-4-9.7c-2.7-2.3-6.6-3.4-11.8-3.4h-15.4l1.6-1.7V561.8z M224.1,579l-12.5-17.5h4
	l12.5,17.5H224.1z"/>
<path class="st2" d="M269.6,579.3c-3.4,0-6.8-0.6-10-1.8c-3-1.2-5.7-2.9-8-5.1c-2.2-2.2-4-4.8-5.2-7.8c-2.5-6.3-2.5-13.2,0-19.5
	c1.2-2.9,3-5.6,5.3-7.8c2.3-2.2,5-4,8-5.1c3.2-1.2,6.5-1.9,9.9-1.8c3.3,0,6.5,0.5,9.5,1.7c2.9,1,5.5,2.8,7.6,5l-2.2,2.3
	c-1.9-1.9-4.3-3.4-6.9-4.4c-2.6-0.9-5.3-1.4-8-1.3c-2.9,0-5.8,0.5-8.6,1.6c-5.2,2-9.3,6.1-11.5,11.2c-2.2,5.4-2.2,11.4,0,16.8
	c2.1,5.1,6.3,9.2,11.5,11.2c2.7,1.1,5.6,1.6,8.6,1.6c2.7,0,5.4-0.4,8-1.3c2.6-1,4.9-2.5,6.9-4.4l2.2,2.3c-2.1,2.3-4.7,4-7.6,5.1
	C276.1,578.8,272.9,579.4,269.6,579.3z"/>
<path class="st2" d="M298.2,579l22.2-48.3h3.5l22.2,48.3h-3.8l-21-46.1h1.5L301.9,579H298.2z M306.3,565.4l1.2-3h28.8l1.2,3H306.3z"
	/>
<path class="st2" d="M363.8,579v-48.3h19.1c4.7-0.1,9.3,1,13.4,3.2c3.7,2,6.9,4.9,9,8.6c4.3,7.8,4.3,17.2,0,25
	c-2.1,3.6-5.3,6.6-9,8.6c-4.2,2.1-8.8,3.2-13.4,3.1L363.8,579z M367.3,575.8h15.3c4.1,0.1,8.2-0.8,11.9-2.7c3.2-1.7,5.9-4.3,7.8-7.4
	c3.7-6.8,3.7-14.9,0-21.7c-1.8-3.2-4.5-5.7-7.8-7.4c-3.7-1.9-7.7-2.8-11.9-2.7h-15.3V575.8z"/>
<path class="st2" d="M450.2,579.3c-3.4,0-6.8-0.6-10-1.8c-3-1.2-5.7-2.9-8-5.2c-2.3-2.2-4.1-4.9-5.3-7.8c-2.5-6.2-2.5-13.2,0-19.4
	c1.2-2.9,3-5.6,5.3-7.8c2.3-2.2,5-4,8-5.2c6.4-2.4,13.5-2.4,19.9,0c6,2.3,10.8,7,13.2,12.9c2.5,6.3,2.5,13.3,0,19.5
	c-2.5,5.9-7.3,10.6-13.2,12.9C457,578.8,453.6,579.4,450.2,579.3z M450.2,576.1c2.9,0,5.8-0.5,8.5-1.6c2.6-1,4.9-2.5,6.8-4.5
	c1.9-1.9,3.5-4.2,4.5-6.8c2.2-5.4,2.2-11.4,0-16.8c-1.1-2.5-2.6-4.8-4.5-6.7c-1.9-1.9-4.3-3.5-6.8-4.5c-5.5-2.1-11.6-2.1-17.1,0
	c-5.2,2.1-9.3,6.1-11.4,11.2c-2.2,5.4-2.2,11.4,0,16.8c2.1,5.1,6.2,9.2,11.4,11.2C444.4,575.6,447.3,576.1,450.2,576.1z"/>
<path class="st2" d="M505,579v-45.1h-17.4v-3.2h38.3v3.2h-17.4V579L505,579z"/>
<path class="st2" d="M547.1,575.8h29.8v3.2h-33.3v-48.3h32.3v3.2h-28.8V575.8z M546.7,552.9h26.1v3.1h-26.1V552.9z"/>
<path class="st2" d="M618.8,579.3c-3.4,0-6.8-0.6-10-1.8c-3-1.2-5.7-2.9-8-5.1c-2.2-2.2-4-4.8-5.2-7.8c-2.5-6.3-2.5-13.2,0-19.5
	c1.2-2.9,3-5.6,5.3-7.8c2.3-2.2,5-4,8-5.1c3.2-1.2,6.5-1.9,9.9-1.8c3.3,0,6.5,0.5,9.5,1.7c2.9,1,5.5,2.8,7.6,5l-2.2,2.3
	c-1.9-1.9-4.3-3.4-6.9-4.4c-2.6-0.9-5.3-1.4-8-1.3c-2.9,0-5.8,0.5-8.6,1.6c-5.2,2-9.3,6.1-11.5,11.2c-2.2,5.4-2.2,11.4,0,16.8
	c1.1,2.5,2.6,4.8,4.5,6.8c2,1.9,4.3,3.5,6.9,4.5c2.7,1.1,5.6,1.6,8.6,1.6c2.7,0,5.4-0.4,8-1.3c2.6-1,4.9-2.5,6.9-4.4l2.2,2.3
	c-2.1,2.3-4.7,4-7.6,5.1C625.3,578.8,622.1,579.4,618.8,579.3z"/>
<path class="st2" d="M656.8,579v-48.3h3l34.4,43.9h-1.6v-43.9h3.5V579h-2.9l-34.5-43.9h1.6V579H656.8z"/>
<path class="st2" d="M721.9,579v-48.3h3.5V579H721.9z"/>
<path class="st2" d="M743.1,579l22.2-48.3h3.5L791,579h-3.8l-21-46.1h1.5L746.8,579H743.1z M751.2,565.4l1.2-3h28.9l1.2,3H751.2z"/>
<path class="st2" d="M835.4,579v-48.3h19.1c4.7-0.1,9.3,1,13.4,3.1c3.7,2,6.9,4.9,9,8.6c4.3,7.8,4.3,17.2,0,25
	c-2.1,3.6-5.3,6.6-9,8.6c-4.2,2.1-8.8,3.2-13.4,3.1L835.4,579z M838.9,575.8h15.3c4.1,0.1,8.2-0.8,11.9-2.7c3.2-1.7,5.9-4.3,7.8-7.4
	c3.7-6.8,3.7-14.9,0-21.7c-1.8-3.2-4.5-5.7-7.8-7.4c-3.7-1.9-7.7-2.8-11.9-2.7h-15.3V575.8z"/>
<path class="st2" d="M901.3,579v-48.3h3.5V579H901.3z"/>
<path class="st2" d="M951.2,579.3c-3.4,0-6.9-0.6-10.1-1.8c-3-1.2-5.7-2.9-8-5.1c-2.3-2.2-4.1-4.8-5.3-7.8c-2.5-6.3-2.5-13.2,0-19.5
	c1.2-2.9,3-5.6,5.3-7.8c2.3-2.2,5-4,8-5.1c3.2-1.2,6.6-1.9,10.1-1.8c3.3,0,6.6,0.5,9.7,1.7c2.9,1.1,5.5,2.8,7.7,5l-2.2,2.3
	c-2-2-4.3-3.5-6.9-4.4c-2.6-0.9-5.4-1.3-8.2-1.3c-3,0-5.9,0.5-8.7,1.6c-2.6,1-5,2.5-7,4.5c-2,1.9-3.5,4.2-4.6,6.8
	c-2.1,5.4-2.1,11.4,0,16.8c1.1,2.5,2.6,4.8,4.6,6.8c2,2,4.4,3.5,7,4.5c2.8,1.1,5.7,1.6,8.7,1.6c2.8,0,5.5-0.4,8.1-1.3
	c2.6-0.9,5-2.4,7-4.3l2,2.7c-2.2,2.1-4.9,3.7-7.8,4.7C957.7,578.9,954.5,579.4,951.2,579.3z M965.1,572.8v-17.7h3.4v18.1
	L965.1,572.8z"/>
<path class="st2" d="M992.9,579v-48.3h3.5V579H992.9z"/>
<path class="st2" d="M1031.4,579v-45.1h-17.4v-3.2h38.3v3.2H1035V579L1031.4,579z"/>
<path class="st2" d="M1059.5,579l22.2-48.3h3.5l22.2,48.3h-3.8l-21-46.1h1.5l-20.9,46.1H1059.5z M1067.6,565.4l1.2-3h28.9l1.2,3
	H1067.6z"/>
<path class="st2" d="M1125.1,579v-48.3h3.5v45.1h27.8v3.2H1125.1z"/>
<rect x="58.4" y="39.7" class="st3" width="1102.8" height="539.6"/>
<rect x="1258.4" y="241.6" transform="matrix(0.7071 -0.7071 0.7071 0.7071 199.6012 1003.733)" class="st3" width="106" height="38.6"/>
<rect x="1404.4" y="288.5" transform="matrix(0.7071 -0.7071 0.7071 0.7071 209.2108 1120.6531)" class="st3" width="106" height="38.6"/>
<polygon class="st3" points="1161.2,284.7 1335.2,110.7 1461.6,237.1 1366.3,332.4 1434.3,400.3 1549.9,284.7 1355.6,90.4 
	1384.8,61.2 1608.3,284.7 1434.3,458.7 1307.9,332.4 1403.2,237.1 1335.2,169.1 1219.6,284.7 1414,479.1 1384.8,508.3 "/>
<rect x="479" y="-226.9" transform="matrix(0.7071 -0.7071 0.7071 0.7071 302.6328 315.3568)" class="st3" width="106" height="38.6"/>
<rect x="624.9" y="-180.1" transform="matrix(0.7071 -0.7071 0.7071 0.7071 312.2425 432.2769)" class="st3" width="106" height="38.6"/>
<polygon class="st3" points="381.8,-183.8 555.8,-357.8 682.2,-231.5 586.9,-136.2 654.9,-68.2 770.5,-183.8 576.1,-378.2 
	605.3,-407.4 828.9,-183.8 654.9,-9.8 528.5,-136.2 623.8,-231.5 555.8,-299.4 440.2,-183.8 634.5,10.5 605.3,39.7 "/>
<rect x="-291.5" y="282.8" transform="matrix(0.7071 -0.7071 0.7071 0.7071 -283.4839 -80.1441)" class="st3" width="106" height="38.6"/>
<rect x="-145.5" y="329.7" transform="matrix(0.7071 -0.7071 0.7071 0.7071 -273.8742 36.7759)" class="st3" width="106" height="38.6"/>
<polygon class="st3" points="-388.7,325.9 -214.7,151.9 -88.3,278.3 -183.6,373.6 -115.6,441.5 0,325.9 -194.3,131.6 -165.1,102.4 
	58.4,325.9 -115.6,499.9 -242,373.6 -146.7,278.3 -214.7,210.3 -330.3,325.9 -135.9,520.3 -165.1,549.5 "/>
<rect x="530.4" y="759.4" transform="matrix(0.7071 -0.7071 0.7071 0.7071 -379.7725 640.6199)" class="st3" width="106" height="38.6"/>
<rect x="676.4" y="806.3" transform="matrix(0.7071 -0.7071 0.7071 0.7071 -370.1628 757.54)" class="st3" width="106" height="38.6"/>
<polygon class="st3" points="433.2,802.5 607.2,628.5 733.6,754.9 638.3,850.2 706.3,918.1 821.9,802.5 627.6,608.2 656.8,579 
	880.3,802.5 706.3,976.6 579.9,850.2 675.2,754.9 607.2,687 491.6,802.5 686,996.9 656.8,1026.1 "/>
<rect x="-388.7" y="-407.4" class="st3" width="1997" height="1433.5"/>
</svg>
